<svg xmlns="http://www.w3.org/2000/svg" fill="none" viewBox="0 0 48 48" id="Battery-Charging--Streamline-Ionic-Filled.svg" height="48" width="48"><desc>Battery Charging Streamline Icon: https://streamlinehq.com</desc><path fill="#ffffff" d="M4.49996 30.2144V17.7833c0.00099 -0.7382 0.29466 -1.4458 0.81661 -1.9677 0.52195 -0.522 1.22958 -0.8156 1.96773 -0.8166h12.8848l2.2875 -3H7.2843c-1.53356 0.0018 -3.00381 0.6117 -4.0882 1.6961 -1.08439 1.0844 -1.69437 2.5547 -1.6961 4.0882v12.4311c0.00173 1.5335 0.61171 3.0038 1.6961 4.0882 1.08439 1.0844 2.55464 1.6943 4.0882 1.6961h9.0796c-0.0293 -0.2286 -0.0211 -0.4603 0.0243 -0.6862l0.0141 -0.0704 0.0197 -0.0684 0.6094 -2.175H7.2843c-0.73815 -0.001 -1.44578 -0.2946 -1.96773 -0.8166 -0.52195 -0.5219 -0.81562 -1.2295 -0.81661 -1.9677Z" stroke-width="1"></path><path fill="#ffffff" d="M36.2157 11.999h-9.2473c0.0275 0.2249 0.019 0.4528 -0.0254 0.675l-0.014 0.0694 -0.0197 0.0684 -0.6131 2.1872h9.9195c0.7382 0.001 1.4458 0.2946 1.9677 0.8166 0.522 0.5219 0.8156 1.2295 0.8167 1.9677v12.4311c-0.0011 0.7382 -0.2947 1.4458 -0.8167 1.9677 -0.5219 0.522 -1.2295 0.8156 -1.9677 0.8166H23.1565l-2.2893 3h15.3485c1.5336 -0.0018 3.0038 -0.6117 4.0882 -1.6961 1.0844 -1.0844 1.6944 -2.5547 1.6961 -4.0882V17.7833c-0.0017 -1.5335 -0.6117 -3.0038 -1.6961 -4.0882 -1.0844 -1.0844 -2.5546 -1.6943 -4.0882 -1.6961Z" stroke-width="1"></path><path fill="#ffffff" d="M15.2455 27.5762c-0.4158 0.0001 -0.8239 -0.1133 -1.18 -0.3281 -0.3562 -0.2148 -0.647 -0.5227 -0.8411 -0.8906 -0.2007 -0.3774 -0.2944 -0.8024 -0.2709 -1.2292 0.0234 -0.4268 0.1632 -0.839 0.404 -1.1921l0.0291 -0.0432 0.0309 -0.0412 5.1062 -6.696H8.4061c-0.49725 0 -0.97412 0.1975 -1.32572 0.5491s-0.54913 0.8285 -0.54913 1.3257v9.9367c0 0.4972 0.19753 0.9741 0.54913 1.3257 0.3516 0.3517 0.82847 0.5492 1.32572 0.5492h9.2261l0.9168 -3.2679 -3.3035 0.0019Z" stroke-width="1"></path><path fill="#ffffff" d="m25.8825 26.3329 2.5377 -3.3272c0.0358 -0.0543 0.0604 -0.1151 0.0722 -0.179 0.004 -0.0205 0.0064 -0.0411 0.0075 -0.0619 0.0028 -0.0404 0.0003 -0.0811 -0.0075 -0.121 -0.0109 -0.0581 -0.0325 -0.1138 -0.0637 -0.164 -0.0204 -0.0327 -0.045 -0.0626 -0.0731 -0.0891 -0.0139 -0.0131 -0.029 -0.0251 -0.045 -0.0356 -0.0318 -0.0225 -0.0669 -0.0398 -0.1041 -0.0516 -0.0397 -0.0125 -0.0811 -0.0189 -0.1228 -0.0187h-5.7768l1.1362 -4.0509 0.3028 -1.0781 0.5822 -2.0775 0.0478 -0.1725 0.7303 -2.6024c0.0029 -0.0171 0.0045 -0.0343 0.0047 -0.0516l0 -0.015c0 -0.0047 0 -0.0244 -0.0047 -0.0356 -0.0047 -0.0113 0 -0.0085 0 -0.0132 -0.0037 -0.0146 -0.0091 -0.0286 -0.0159 -0.0421 -0.0073 -0.0127 -0.0155 -0.0249 -0.0244 -0.0366l-0.0084 -0.0094c-0.0073 -0.0077 -0.0152 -0.0148 -0.0235 -0.0215l-0.0093 -0.0075c-0.0117 -0.0084 -0.0239 -0.0159 -0.0366 -0.0225 -0.0123 -0.0058 -0.0251 -0.0102 -0.0384 -0.0132h-0.0554c-0.0139 -0.0014 -0.0281 -0.0014 -0.0421 0 -0.0136 0.0032 -0.0269 0.0079 -0.0394 0.0141l-0.0122 0.0066 -0.0281 0.0196 -0.0103 0.0094c-0.0127 0.0116 -0.024 0.0244 -0.0338 0.0385l-1.6875 2.2152 -1.2318 1.6144 -0.9234 1.2028 -5.9728 7.8327c-0.0156 0.0239 -0.0295 0.0489 -0.0412 0.075 -0.015 0.0326 -0.026 0.0669 -0.0328 0.1022 -0.0081 0.0397 -0.0106 0.0805 -0.0075 0.1209 0.0031 0.0684 0.0216 0.1351 0.0541 0.1953 0.0324 0.0603 0.078 0.1124 0.1334 0.1525 0.0162 0.0108 0.0331 0.0206 0.0506 0.0291 0.0553 0.0267 0.1159 0.0405 0.1772 0.0403h5.7768l-2.7956 9.9767c-0.0013 0.0176 -0.0013 0.0351 0 0.0525l0 0.0141c0.0009 0.012 0.0028 0.0239 0.0056 0.0356 -0.0005 0.0044 -0.0005 0.0088 0 0.0132 0.0037 0.0146 0.0091 0.0287 0.0159 0.0421 0.0074 0.0124 0.0156 0.0243 0.0244 0.0357l0.0084 0.0093 0.0235 0.0225c0.0035 0.002 0.0067 0.0045 0.0094 0.0075 0.0114 0.0085 0.0237 0.0157 0.0365 0.0216 0.0125 0.0053 0.0253 0.0098 0.0385 0.0131h0.0121c0.0104 0.001 0.0208 0.001 0.031 0h0.0122c0.0142 -0.0004 0.0284 -0.0023 0.0422 -0.0056 0.0133 -0.0036 0.0262 -0.0086 0.0384 -0.015l0.0122 -0.0066 0.0281 -0.0196 0.0103 -0.0085c0.0128 -0.0114 0.024 -0.0244 0.0338 -0.0384l2.1862 -2.8547 1.6434 -2.1562 3.4425 -4.5102Z" stroke-width="1"></path><path fill="#ffffff" d="m29.953 24.0862 -0.0432 0.0562 -5.1118 6.6998h10.293c0.4972 0 0.9741 -0.1975 1.3257 -0.5492 0.3515 -0.3516 0.5491 -0.8285 0.5491 -1.3257v-9.9367c0 -0.4972 -0.1976 -0.9741 -0.5491 -1.3257 -0.3516 -0.3516 -0.8285 -0.5491 -1.3257 -0.5491h-9.3987l-0.913 3.2556h3.3035c0.412 -0.0004 0.8164 0.1106 1.1704 0.3213 0.354 0.2107 0.6444 0.5134 0.8404 0.8758 0.2036 0.3741 0.3024 0.7962 0.2859 1.2218 -0.0165 0.4255 -0.1477 0.8387 -0.3797 1.1959l-0.0468 0.06Z" stroke-width="1"></path><path fill="#ffffff" d="M44.9999 18.9995c-0.3978 0 -0.7793 0.1581 -1.0606 0.4393 -0.2813 0.2813 -0.4393 0.6627 -0.4393 1.0606v6.9987c0 0.3978 0.158 0.7793 0.4393 1.0606s0.6628 0.4393 1.0606 0.4393c0.3977 0 0.7792 -0.158 1.0606 -0.4393 0.2812 -0.2813 0.4392 -0.6628 0.4392 -1.0606v-6.9987c0 -0.3979 -0.158 -0.7793 -0.4392 -1.0606 -0.2814 -0.2812 -0.6629 -0.4393 -1.0606 -0.4393Z" stroke-width="1"></path></svg>